<svg xmlns="http://www.w3.org/2000/svg" xmlns:xlink="http://www.w3.org/1999/xlink" width="612" height="612" viewBox="0 0 612 612"><path fill="#B46D29" d="M564.254 491.03c1.303 20.911-70.536 42.396-160.453 47.989-89.924 5.594-163.869-6.821-165.169-27.735-1.301-20.911 70.537-42.396 160.454-47.989 89.921-5.594 163.869 6.825 165.168 27.735"/><defs><path id="a" d="M9.185 347.213c-8.292 29.104 23.252 63.601 57.454 73.346 34.201 9.74 68.648-5.959 76.939-35.063 4.939-17.341-3.764-13.31-18.842-9.271-10.229 2.729-23.394 5.472-37.213 1.528-26.644-7.591-54.277-39.551-69.115-39.548-4.207-.001-7.39 2.574-9.223 9.008"/></defs><clipPath id="b"><use xlink:href="#a" overflow="visible"/></clipPath><linearGradient id="c" gradientUnits="userSpaceOnUse" x1="185.232" y1="140.002" x2="188.517" y2="140.002" gradientTransform="rotate(54.9 4412.104 -2022.864) scale(20.7847)"><stop offset="0" stop-color="#efb730"/><stop offset="1" stop-color="#ffd65a"/></linearGradient><path clip-path="url(#b)" fill="url(#c)" d="M99.708 268.752l92.135 131.095-142.141 99.901-92.135-131.098z"/><defs><path id="d" d="M308.579 556.114c-13.801 1.254-.532.684 0 0"/></defs><clipPath id="e"><use xlink:href="#d" overflow="visible"/></clipPath><linearGradient id="f" gradientUnits="userSpaceOnUse" x1="-1899.633" y1="64.045" x2="-1896.351" y2="64.045" gradientTransform="rotate(-90 306.334 12.668) scale(.1251)"><stop offset="0" stop-color="#efb730"/><stop offset="1" stop-color="#ffd65a"/></linearGradient><path clip-path="url(#e)" fill="url(#f)" d="M294.778 556.114h13.801v1.254h-13.801z"/><g><defs><path id="g" d="M260.086 555.909c6.947.222 15.587.205.166-.661-.047.212-.116.446-.166.661"/></defs><clipPath id="h"><use xlink:href="#g" overflow="visible"/></clipPath><linearGradient id="i" gradientUnits="userSpaceOnUse" x1="-1782.173" y1="-93.412" x2="-1778.887" y2="-93.412" gradientTransform="rotate(-90 300.156 19.918) scale(.1323)"><stop offset="0" stop-color="#efb730"/><stop offset="1" stop-color="#ffd65a"/></linearGradient><path clip-path="url(#h)" fill="url(#i)" d="M260.086 555.248h15.587v.883h-15.587z"/></g><g><defs><path id="j" d="M279.589 2.068c-75.513.44-126.356 23.987-160.488 54.842a41.204 41.204 0 0 0-.867-2.436c-6.766-16.802-27.975-27.595-35.879-20.908-5.433 4.591-18.151 23.137-11.387 39.936 3.619 8.995 9.915 15.826 16.98 19.455C56.98 138.992 51.22 187.841 51.22 200.695c0 136.239 131.596 406.379 168.869 406.379 18.392 0 35.311-30.312 39.997-51.165-7.678-.244-13.287-.782 17.969-.782 25.149 0 30.887.521 30.524.987 1.181-.105 2.495-.218 4.102-.355 4.125 21.488 45.328 52.307 63.278 46.991 38.208-11.305 75.533-98.964 100.109-197.294 21.848 17.258 54.028 20.039 81.074 4.503 34.848-20.01 69.803-78.686 39.866-101.557-34.448-26.319-34.108 43.6-72.593 55.164-18.614 5.594-28.951 5.15-34.849 4.701-3.086-.229-4.959-.465-6.165.17 8.833-48.842 21.481-128.79 21.481-167.742 0-14.931-5.712-69.534-40.998-117.719 3.563-4.111 6.438-9.1 8.225-14.801 6.094-19.445-6.839-44.843-19.278-44.708-8.729.097-25.469 3.938-35.216 15-32.225-21.6-76.147-36.402-135.905-36.406-.71 0-1.409.004-2.121.007"/></defs><clipPath id="k"><use xlink:href="#j" overflow="visible"/></clipPath><linearGradient id="l" gradientUnits="userSpaceOnUse" x1="183.749" y1="129.715" x2="187.034" y2="129.715" gradientTransform="rotate(-90 3152.73 16082.164) scale(102.2906)"><stop offset="0" stop-color="#efb730"/><stop offset="1" stop-color="#ffd65a"/></linearGradient><path clip-path="url(#k)" fill="url(#l)" d="M51.22 2.062h575.725v606.002H51.22z"/></g><g><path fill="#751113" d="M321.386 291.973c0 34.83-15.991 65.074-55.229 65.074s-39.686-15.174-48.595-50.43c-8.536-33.785-7.8-31.782 48.084-38.028 53.815-6.03 55.74-11.439 55.74 23.384"/><path fill="#FFF" d="M239.064 270.863c-.043-.548 3.79 10.02 7.647 13.065 5.236 5.162 22.31 7.188 32.922 3.588 11.764-4.25 10-11.356 10.781-16.982-.17-2.218 2.011-5.17.768-5.63"/><g opacity=".65"><defs><path id="m" opacity=".65" d="M367.435 151.5h36.79v48.632h-36.79z"/></defs><clipPath id="n"><use xlink:href="#m" overflow="visible"/></clipPath><g clip-path="url(#n)"><defs><path id="o" d="M367.435 175.816c-.002 13.429 8.235 24.316 18.394 24.316 10.164 0 18.396-10.892 18.396-24.316 0-13.425-8.232-24.316-18.391-24.316-10.164 0-18.401 10.891-18.399 24.316"/></defs><clipPath id="p"><use xlink:href="#o" overflow="visible"/></clipPath><linearGradient id="q" gradientUnits="userSpaceOnUse" x1="185.536" y1="132.296" x2="188.116" y2="132.296" gradientTransform="matrix(0 18.4115 18.4115 0 -2049.935 -3237.346)"><stop offset="0" stop-color="#fff"/><stop offset="1"/></linearGradient><path clip-path="url(#p)" fill="url(#q)" d="M367.433 151.5h36.792v48.632h-36.792z"/></g></g><path fill="#231F20" d="M401.443 176.689c0 11.137-6.821 20.166-15.247 20.166-8.425 0-15.257-9.028-15.257-20.166 0-11.123 6.832-20.151 15.257-20.151 8.426.001 15.247 9.029 15.247 20.151"/><path fill="#FFF" d="M380.007 171v-4.824 2.42-2.42c-3.646 4.824-5.478 12.053-5.478 19.279 0-2.407 1.831-2.407 1.831-2.407 3.646-2.409 1.831-16.872 5.468-16.872"/><g opacity=".65"><defs><path id="r" d="M132.451 175.783c-.002 13.258 8.126 24.002 18.158 24.002 10.031 0 18.16-10.75 18.16-24.002 0-13.25-8.129-24.003-18.155-24.003-10.036 0-18.165 10.753-18.163 24.003"/></defs><clipPath id="s"><use xlink:href="#r" overflow="visible"/></clipPath><linearGradient id="t" gradientUnits="userSpaceOnUse" x1="185.521" y1="123.39" x2="188.069" y2="123.39" gradientTransform="matrix(0 18.4115 18.4115 0 -2121.185 -3237.143)"><stop offset="0" stop-color="#fff"/><stop offset="1"/></linearGradient><path clip-path="url(#s)" fill="url(#t)" d="M132.449 151.78h36.32v48.005h-36.32z"/></g><path fill="#231F20" d="M165.762 176.689c0 11.137-6.822 20.166-15.249 20.166-8.424 0-15.255-9.028-15.255-20.166 0-11.123 6.831-20.151 15.255-20.151 8.427.001 15.249 9.029 15.249 20.151"/><path fill="#080809" d="M390.356 176.282c0 8.113-3.986 14.69-8.903 14.69-4.92 0-8.906-6.578-8.906-14.69 0-8.111 3.986-14.69 8.906-14.69 4.917 0 8.903 6.579 8.903 14.69"/><defs><path id="u" d="M373.191 171.984c0 4.97 3.104 8.997 6.942 8.997 3.833 0 6.938-4.027 6.938-8.997 0-4.969-3.104-8.995-6.938-8.995-3.837.001-6.942 4.026-6.942 8.995"/></defs><clipPath id="v"><use xlink:href="#u" overflow="visible"/></clipPath><linearGradient id="w" gradientUnits="userSpaceOnUse" x1="186.885" y1="138.381" x2="190.169" y2="138.381" gradientTransform="rotate(-90 405.298 765.573) scale(5.3505)"><stop offset="0" stop-color="#fff"/><stop offset="1" stop-color="#bcbdc0"/></linearGradient><path clip-path="url(#v)" fill="url(#w)" d="M373.191 162.99h13.881v17.991h-13.881z"/><path fill="#FFF" d="M144.325 171v-4.824 2.42-2.42c-3.645 4.824-5.478 12.053-5.478 19.279 0-2.407 1.833-2.407 1.833-2.407 3.645-2.409 1.828-16.872 5.468-16.872"/><g><path fill="#080809" d="M155.054 175.815c0 8.111-3.988 14.689-8.905 14.689-4.918 0-8.907-6.578-8.907-14.689 0-8.112 3.988-14.69 8.907-14.69 4.916 0 8.905 6.578 8.905 14.69"/></g><g><defs><path id="x" d="M139.207 172.642c0 4.968 3.106 8.995 6.939 8.995 3.839 0 6.943-4.027 6.943-8.995 0-4.97-3.104-8.996-6.943-8.996-3.833 0-6.939 4.026-6.939 8.996"/></defs><clipPath id="y"><use xlink:href="#x" overflow="visible"/></clipPath><linearGradient id="z" gradientUnits="userSpaceOnUse" x1="186.799" y1="107.965" x2="190.082" y2="107.965" gradientTransform="rotate(-90 369.774 801.295) scale(5.3505)"><stop offset="0" stop-color="#fff"/><stop offset="1" stop-color="#bcbdc0"/></linearGradient><path clip-path="url(#y)" fill="url(#z)" d="M139.207 163.646h13.882v17.991h-13.882z"/></g><g><defs><path id="A" d="M228.434 219.737c0 7.439 8.743 13.468 19.524 13.468 10.783 0 19.522-6.029 19.522-13.468 0-7.442-10.056-17.126-20.842-17.126-10.782-.001-18.204 9.683-18.204 17.126"/></defs><clipPath id="B"><use xlink:href="#A" overflow="visible"/></clipPath><linearGradient id="C" gradientUnits="userSpaceOnUse" x1="179.702" y1="120.918" x2="182.986" y2="120.918" gradientTransform="rotate(-90 388.378 765.93) scale(5.173)"><stop offset="0" stop-color="#efb730"/><stop offset="1" stop-color="#fbad26"/></linearGradient><path clip-path="url(#B)" fill="url(#C)" d="M228.434 202.61h39.046v30.595h-39.046z"/></g></g></svg>
