<svg xmlns="http://www.w3.org/2000/svg" width="612" height="612" viewBox="0 0 612 612"><path fill="#CCA6CE" d="M213.703 567.861c-20.796-3.041-51.495 9.258-39.174 23.904-8.937-12.551 20.675-16.117 41.342-8.744 11.255 4.014 27.262 10.41 17.858 15.629 12.705-5.379 11.542-26.173-20.026-30.789z"/><path fill="#A391C5" d="M216.838 578.973c-21.513-5.318-51.246.242-42.309 12.793 12.32 14.646 46.494 12.264 59.2 6.885 9.404-5.219 4.404-14.413-16.891-19.678z"/><path fill="#CCA6CE" d="M261.595 139.234c-83.153 103.137-34.816 180.165-27.564 199.018 7.252 18.855 11.119 17.889-20.305 43.994-32.905 27.342-43.828 72.207-37.181 110.789 3.286 19.066 10.84 36.604 22.193 49.717 25.91 29.924 69.171 42.199 107.333 25.635 4.993-11.162 22.405-24.781 37.996-29.424 11.338-13.918 18.719-29.725 22.525-45.928 9.435-40.096-3.044-82.625-32.006-104.986-33.517-25.881-60.914-16.922-74.934-30.941-22.76-22.76 16.724-244.437 202.059-354.856L464.644 0S344.748 36.097 261.595 139.234z"/><path fill="#922C26" d="M312.517 307.471c-.832.303-1.617.6-2.425.902a75.748 75.748 0 0 0 4.689-1.722c-.755.272-1.51.546-2.264.82z"/><path fill="#736BB1" d="M416.178 145.118c-3.444-72.396-53.36-87.584-118.77 42.434-57.757 114.808-21.649 132.284 12.684 120.821.808-.303 1.593-.6 2.425-.902l2.265-.82c.038-.02.076-.03.113-.046.092-.037.183-.06.272-.098 53.564-19.44 105.565-40.893 101.132-155.671-.075-1.956-.084-3.807-.121-5.718z"/><path fill="#595BA1" d="M424.555 67.509C435.667 27.171 457.452 6.005 464.644 0l-2.931 2.251C276.378 112.67 236.894 334.348 259.654 357.107c-6.134-7.109-1.443-22.297 19.776-34.725 7.871-4.613 17.971-9.301 30.662-14.01-34.333 11.463-61.671-13.748-8.816-120.821C358.55 71.532 412.733 72.722 416.178 145.118c-.733-31.896 2.825-57.466 8.377-77.609z"/><path fill="#922C26" d="M314.781 306.651c.129-.049.258-.095.386-.144-.09.038-.181.061-.272.098-.038.016-.076.026-.114.046z"/><path fill="#A391C5" d="M306.057 568.387c4.994-11.162 22.405-24.781 37.997-29.424 11.338-13.918 18.719-29.725 22.525-45.928 9.435-40.096-3.044-82.625-32.006-104.986-33.517-25.881-60.915-16.922-74.935-30.941-.234-.234-.453-.525-.672-.801 10.085 15.025 28.124 14.877 47.295 30.012 22.965 18.129 34.446 48.896 32.392 85.604-4.298 76.756-105.445 112.709-142.263 67.902.778.982 1.526 1.99 2.334 2.928 25.91 29.923 69.171 42.198 107.333 25.634z"/><path fill="#CCA6CE" d="M307.436 554.402c18.296-23.453 44.235-32.484 56.118-21.422 11.875 11.07-5.175 39.492-33.117 44.949-27.934 5.464-38.208-4.021-23.001-23.527z"/><path fill="#A391C5" d="M307.972 557.916c16.747-20.191 35.625-24.742 46.396-15.305 10.764 9.439-.099 31.27-25.562 36.07-25.45 4.801-34.771-3.968-20.834-20.765z"/><path fill="#6A56A0" d="M286.375 519.859c6.776 0 12.275-6.111 12.275-13.658 0-7.541-5.499-13.652-12.275-13.652s-12.268 6.111-12.268 13.652c.001 7.547 5.493 13.658 12.268 13.658zM214.946 508.373c-5.779 1.984-8.687 8.809-6.474 15.244 2.198 6.439 8.679 10.047 14.466 8.064 5.779-1.982 8.679-8.809 6.474-15.244-2.206-6.435-8.688-10.042-14.466-8.064z"/><path fill="#FFF" d="M291.61 500.041a4.795 4.795 0 0 1-4.79 4.795 4.796 4.796 0 0 1 0-9.59 4.794 4.794 0 0 1 4.79 4.795zM223.746 515.629a4.797 4.797 0 0 1-9.593 0c0-2.646 2.152-4.793 4.796-4.793s4.797 2.146 4.797 4.793z"/></svg>
